<svg width="512" height="512" viewBox="0 0 512 512" fill="none" xmlns="http://www.w3.org/2000/svg">
  <!-- Background Circle -->
  <circle cx="256" cy="256" r="256" fill="#4f46e5"/>
  
  <!-- Football/Soccer Ball -->
  <circle cx="256" cy="256" r="120" fill="white" stroke="#1a1a1a" stroke-width="5"/>
  
  <!-- Pentagon in center -->
  <polygon points="256,175 295,200 280,245 232,245 217,200" fill="#1a1a1a"/>
  
  <!-- Hexagon patterns -->
  <polygon points="256,175 295,200 335,185 320,145 280,130" fill="none" stroke="#1a1a1a" stroke-width="4"/>
  <polygon points="217,200 232,245 200,280 160,265 175,220" fill="none" stroke="#1a1a1a" stroke-width="4"/>
  <polygon points="295,200 280,245 312,280 352,265 335,185" fill="none" stroke="#1a1a1a" stroke-width="4"/>
  <polygon points="232,245 280,245 312,280 280,335 200,280" fill="none" stroke="#1a1a1a" stroke-width="4"/>
  
  <!-- xG Text -->
  <text x="256" y="410" font-family="Arial, sans-serif" font-size="64" font-weight="bold" text-anchor="middle" fill="white">xG</text>
  
  <!-- Analytics Symbol -->
  <path d="M185 440 L225 415 L265 425 L305 400 L345 415" stroke="white" stroke-width="5" fill="none"/>
  <circle cx="185" cy="440" r="5" fill="white"/>
  <circle cx="225" cy="415" r="5" fill="white"/>
  <circle cx="265" cy="425" r="5" fill="white"/>
  <circle cx="305" cy="400" r="5" fill="white"/>
  <circle cx="345" cy="415" r="5" fill="white"/>
</svg>