<svg width="192" height="192" viewBox="0 0 192 192" fill="none" xmlns="http://www.w3.org/2000/svg">
  <!-- Background Circle -->
  <circle cx="96" cy="96" r="96" fill="#4f46e5"/>
  
  <!-- Football/Soccer Ball -->
  <circle cx="96" cy="96" r="45" fill="white" stroke="#1a1a1a" stroke-width="2"/>
  
  <!-- Pentagon in center -->
  <polygon points="96,65 110,75 105,92 87,92 82,75" fill="#1a1a1a"/>
  
  <!-- Hexagon patterns -->
  <polygon points="96,65 110,75 125,70 120,55 105,50" fill="none" stroke="#1a1a1a" stroke-width="1.5"/>
  <polygon points="82,75 87,92 75,105 60,100 65,82" fill="none" stroke="#1a1a1a" stroke-width="1.5"/>
  <polygon points="110,75 105,92 117,105 132,100 125,70" fill="none" stroke="#1a1a1a" stroke-width="1.5"/>
  <polygon points="87,92 105,92 117,105 105,125 75,105" fill="none" stroke="#1a1a1a" stroke-width="1.5"/>
  
  <!-- xG Text -->
  <text x="96" y="155" font-family="Arial, sans-serif" font-size="24" font-weight="bold" text-anchor="middle" fill="white">xG</text>
  
  <!-- Analytics Symbol -->
  <path d="M70 165 L85 155 L100 160 L115 150 L130 155" stroke="white" stroke-width="2" fill="none"/>
  <circle cx="70" cy="165" r="2" fill="white"/>
  <circle cx="85" cy="155" r="2" fill="white"/>
  <circle cx="100" cy="160" r="2" fill="white"/>
  <circle cx="115" cy="150" r="2" fill="white"/>
  <circle cx="130" cy="155" r="2" fill="white"/>
</svg>